<?xml version="1.0" encoding="utf-8"?>
<!-- Generator: Adobe Illustrator 18.0.0, SVG Export Plug-In . SVG Version: 6.00 Build 0)  -->
<!DOCTYPE svg PUBLIC "-//W3C//DTD SVG 1.1//EN" "http://www.w3.org/Graphics/SVG/1.1/DTD/svg11.dtd">
<svg version="1.1" id="Layer_1" xmlns="http://www.w3.org/2000/svg" xmlns:xlink="http://www.w3.org/1999/xlink" x="0px" y="0px"
	 width="168px" height="40px" viewBox="0 0 168 40" enable-background="new 0 0 168 40" xml:space="preserve">
<symbol  id="polymer-logo--lockup" viewBox="0 -40 168 40">
	<g>
		<g enable-background="new    ">
			<path fill="#212121" d="M-23.5-6.4c-0.7,0-1.4,0.1-2,0.4c-0.6,0.3-1.2,0.7-1.6,1.1c-0.4,0.5-0.8,1.1-1,1.7s-0.4,1.4-0.4,2.2v0.4
				c0,0.9,0.1,1.7,0.4,2.4c0.3,0.7,0.6,1.3,1.1,1.8c0.4,0.5,1,0.9,1.5,1.2c0.6,0.3,1.2,0.4,1.8,0.4c0.7,0,1.4-0.1,1.9-0.4
				s1-0.6,1.4-1.1c0.4-0.5,0.7-1,0.9-1.6c0.2-0.6,0.3-1.3,0.3-2.1v-0.8h-8v-0.2c0-0.6,0.1-1.2,0.3-1.7s0.5-1,0.8-1.4
				c0.3-0.4,0.7-0.7,1.2-1s1-0.3,1.6-0.3c0.7,0,1.3,0.1,1.8,0.4s1,0.6,1.4,1.2l0.8-0.6c-0.2-0.3-0.4-0.5-0.7-0.8
				c-0.2-0.2-0.5-0.5-0.9-0.6c-0.3-0.2-0.7-0.3-1.1-0.4C-22.6-6.3-23-6.4-23.5-6.4z M-23.8,4.2c-0.5,0-0.9-0.1-1.3-0.3
				s-0.8-0.4-1.1-0.8c-0.3-0.3-0.6-0.7-0.8-1.2c-0.2-0.5-0.3-1-0.4-1.6h6.8v0.1c0,0.5-0.1,0.9-0.2,1.4c-0.1,0.4-0.3,0.8-0.6,1.2
				c-0.3,0.3-0.6,0.6-1,0.8C-22.8,4.1-23.2,4.2-23.8,4.2z"/>
			<path fill="#212121" d="M-15.7,5.1l0-1.9c0.2,0.3,0.4,0.6,0.7,0.9s0.5,0.5,0.8,0.7s0.6,0.3,1,0.4c0.4,0.1,0.7,0.2,1.1,0.2
				c0.6,0,1.1-0.1,1.5-0.2c0.4-0.2,0.8-0.4,1.1-0.7C-9,4-8.8,3.6-8.6,3.1s0.2-1.2,0.2-1.9v-7.3h-1.2v7.3c0,0.6-0.1,1.1-0.2,1.5
				s-0.3,0.7-0.5,0.9s-0.5,0.4-0.8,0.5c-0.3,0.1-0.7,0.2-1.1,0.2c-0.4,0-0.8-0.1-1.2-0.2c-0.4-0.1-0.7-0.3-1-0.6s-0.5-0.5-0.7-0.9
				c-0.2-0.3-0.4-0.7-0.5-1v-7.7h-1.2V5.1H-15.7z"/>
		</g>
		<g enable-background="new    ">
			<path fill="#0091EA" d="M5,4.3C4.6,4.2,4.3,4.1,4,3.9s-0.6-0.5-0.8-1c-0.4-1-0.9-2.1-1.4-3.2c-0.5-1.1-1-2.2-1.5-3.4
				C0.2-4,0.1-4.4-0.1-4.9c-0.2-0.5-0.3-0.9-0.5-1.4h-0.9c-0.7,1.8-1.4,3.4-2,4.8C-4,0-4.7,1.5-5.3,3C-5.5,3.4-5.7,3.6-6,3.8
				C-6.4,4-6.7,4.1-7,4.2v0.7h5.1V4.2c-0.2,0-0.5-0.1-0.8-0.1c-0.3-0.1-0.5-0.2-0.5-0.4c0,0,0-0.1,0.1-0.2s0.1-0.2,0.1-0.3
				C-2.8,2.4-2.3,1.3-1.8,0c0.6-1.4,1-2.5,1.4-3.3c0.3,0.6,0.6,1.5,1,2.4s0.9,2,1.3,3.2C2,2.5,2.1,2.7,2.2,2.8s0.1,0.4,0.1,0.5
				c0,0.1-0.1,0.2-0.2,0.3S1.8,3.9,1.6,4C1.5,4,1.3,4.1,1.1,4.1C1,4.2,0.8,4.2,0.7,4.2v0.7H5V4.3z"/>
			<path fill="#0091EA" d="M15.3-3.6c-0.5-0.9-1.1-1.6-1.9-2.1c-0.8-0.5-1.7-0.8-2.7-0.8C9.9-6.5,9.1-6.3,8.4-6
				C7.7-5.7,7.2-5.3,6.8-4.7C6.3-4.2,6-3.5,5.8-2.8C5.6-2.1,5.5-1.3,5.5-0.5c0,0.7,0.1,1.4,0.3,2.1c0.2,0.7,0.6,1.3,1,1.9
				c0.4,0.5,1,1,1.6,1.3C9,5.1,9.8,5.3,10.5,5.3c0.8,0,1.5-0.1,2.1-0.4c0.6-0.3,1-0.6,1.4-1c0.3-0.4,0.6-0.9,0.8-1.5
				c0.2-0.6,0.3-1.2,0.3-1.9v-0.7H7.7c0-0.7,0.1-1.4,0.2-2C8-2.9,8.3-3.4,8.6-3.8c0.3-0.4,0.7-0.8,1.2-1s1-0.4,1.7-0.4
				c0.7,0,1.2,0.2,1.7,0.5c0.5,0.3,1,0.9,1.4,1.7L15.3-3.6z M12.8,0.7c0,0.4,0,0.9-0.1,1.3c-0.1,0.5-0.2,0.9-0.3,1.2
				c-0.2,0.3-0.4,0.6-0.7,0.8S11,4.4,10.5,4.4c-0.8,0-1.4-0.3-2-1S7.7,1.8,7.7,0.7H12.8z"/>
			<path fill="#0091EA" d="M28.9-6.2h-5.4v0.7c0.2,0,0.4,0,0.6,0c0.2,0,0.4,0,0.5,0.1c0.2,0.1,0.4,0.2,0.5,0.4
				c0.1,0.2,0.2,0.4,0.2,0.7v5.7c0,0.8-0.2,1.4-0.6,1.8s-0.8,0.6-1.4,0.6c-0.4,0-0.8-0.1-1.1-0.2c-0.3-0.1-0.6-0.3-0.9-0.5
				c-0.2-0.2-0.4-0.4-0.6-0.6c-0.1-0.2-0.3-0.4-0.3-0.5v-6.4c0-0.3,0.1-0.5,0.2-0.6C20.6-5,20.8-5.1,21-5.2c0.2-0.1,0.3-0.1,0.5-0.2
				c0.2,0,0.4-0.1,0.6-0.1v-0.7h-5.5v0.7c0.2,0,0.4,0,0.5,0c0.2,0,0.3,0,0.5,0.1c0.2,0.1,0.4,0.2,0.5,0.4c0.1,0.2,0.2,0.4,0.2,0.7
				v6.9c0,0.3-0.1,0.5-0.2,0.7c-0.1,0.2-0.3,0.4-0.5,0.5C17.5,3.9,17.3,4,17.1,4c-0.2,0-0.4,0.1-0.6,0.1v0.7l3.7,0.2l0.2-0.2V3.4
				h0.1c0.2,0.2,0.4,0.4,0.7,0.6c0.3,0.3,0.5,0.5,0.8,0.6c0.3,0.2,0.6,0.3,1,0.5c0.4,0.1,0.8,0.2,1.3,0.2c1.1,0,1.9-0.3,2.4-1
				s0.8-1.6,0.8-2.7v-5.8c0-0.3,0-0.5,0.1-0.6c0.1-0.2,0.2-0.3,0.5-0.4c0.2-0.1,0.3-0.1,0.5-0.2c0.1,0,0.3-0.1,0.5-0.1V-6.2z"/>
			<path fill="#0091EA" d="M37.2-5.7c-0.5-0.2-1-0.4-1.4-0.5c-0.4-0.1-1-0.2-1.6-0.2c-0.9,0-1.6,0.2-2,0.7c-0.4,0.5-0.6,1.1-0.6,2
				v7.5h-2v1.1h2.1v3.5h2.1V4.9h3.2V3.8h-3.2v-6.2c0-0.5,0-0.9,0.1-1.2s0.1-0.6,0.2-0.8c0.1-0.2,0.3-0.4,0.5-0.5
				c0.2-0.1,0.6-0.2,1-0.2c0.2,0,0.5,0,0.8,0.1c0.4,0,0.6,0.1,0.8,0.1V-5.7z"/>
			<path fill="#0091EA" d="M50.2-6l-3.6-0.2l-0.2,0.2v1.4h-0.1c-0.2-0.2-0.4-0.4-0.6-0.6c-0.2-0.2-0.5-0.4-0.8-0.6
				c-0.3-0.2-0.7-0.4-1-0.5c-0.3-0.1-0.8-0.2-1.3-0.2c-1,0-1.7,0.3-2.2,1c-0.5,0.6-0.8,1.6-0.8,2.8v5.3c0,0.3-0.1,0.5-0.2,0.7
				c-0.1,0.2-0.3,0.3-0.4,0.5c-0.1,0.1-0.3,0.2-0.5,0.2c-0.2,0-0.4,0.1-0.6,0.1v0.7l3.7,0.3l0.2-0.2v-7.7c0-0.8,0.2-1.4,0.5-1.8
				C42.6-5,43-5.2,43.6-5.2c0.4,0,0.8,0.1,1.1,0.2c0.3,0.1,0.6,0.3,0.8,0.5c0.2,0.2,0.4,0.3,0.5,0.5c0.2,0.2,0.3,0.3,0.4,0.5v6.3
				c0,0.2-0.1,0.5-0.2,0.7S46,3.7,45.8,3.8C45.6,3.9,45.4,4,45.2,4c-0.3,0-0.6,0-0.9,0.1v0.7l4.1,0.3l0.2-0.2v-8.8
				c0-0.3,0.1-0.5,0.2-0.7c0.1-0.2,0.3-0.3,0.4-0.5c0.1-0.1,0.3-0.1,0.5-0.2c0.2,0,0.4,0,0.6,0V-6z"/>
			<path fill="#0091EA" d="M60.1,3.5c0-0.4-0.1-0.7-0.3-1C59.6,2.2,59.3,2,58.9,2c-0.4,0-0.7,0.1-1,0.3c-0.2,0.2-0.3,0.5-0.3,0.7
				c0,0.2,0,0.3,0,0.5c0,0.1,0.1,0.3,0.1,0.4c-0.4,0-0.8-0.1-1.2-0.4c-0.5-0.3-0.9-0.7-1.2-1.2v-6.5c0-0.3,0.1-0.5,0.2-0.6
				c0.1-0.2,0.3-0.3,0.5-0.4c0.2-0.1,0.4-0.1,0.7-0.2c0.3,0,0.6-0.1,0.8-0.1v-0.7h-5.9v0.7c0.2,0,0.4,0,0.5,0c0.2,0,0.3,0,0.5,0.1
				c0.2,0.1,0.4,0.2,0.5,0.4c0.1,0.2,0.2,0.4,0.2,0.7v6.9c0,0.2-0.1,0.5-0.2,0.7s-0.3,0.4-0.5,0.5C52.4,3.9,52.3,4,52.1,4
				c-0.2,0-0.4,0.1-0.6,0.1v0.7l3.7,0.2l0.2-0.2V3.4h0.1c0.5,0.6,1,1.1,1.6,1.4c0.6,0.3,1.1,0.5,1.6,0.5s0.9-0.2,1.2-0.5
				S60.1,4,60.1,3.5z"/>
			<path fill="#0091EA" d="M70.9-3.6c-0.5-0.9-1.1-1.6-1.9-2.1c-0.8-0.5-1.7-0.8-2.7-0.8c-0.9,0-1.7,0.2-2.4,0.5
				c-0.7,0.3-1.2,0.7-1.7,1.3c-0.4,0.5-0.8,1.2-1,1.9C61.1-2.1,61-1.3,61-0.5c0,0.7,0.1,1.4,0.3,2.1c0.2,0.7,0.6,1.3,1,1.9
				c0.4,0.5,1,1,1.6,1.3c0.6,0.3,1.3,0.5,2.1,0.5c0.8,0,1.5-0.1,2.1-0.4c0.6-0.3,1.1-0.6,1.4-1c0.3-0.4,0.6-0.9,0.8-1.5
				c0.2-0.6,0.3-1.2,0.3-1.9v-0.7h-7.4c0-0.7,0.1-1.4,0.2-2c0.1-0.6,0.4-1.1,0.7-1.6c0.3-0.4,0.7-0.8,1.2-1c0.5-0.3,1-0.4,1.7-0.4
				c0.7,0,1.2,0.2,1.7,0.5c0.5,0.3,1,0.9,1.4,1.7L70.9-3.6z M68.4,0.7c0,0.4,0,0.9-0.1,1.3c-0.1,0.5-0.2,0.9-0.3,1.2
				c-0.2,0.3-0.4,0.6-0.7,0.8s-0.7,0.3-1.2,0.3c-0.8,0-1.4-0.3-2-1c-0.5-0.7-0.8-1.6-0.9-2.7H68.4z"/>
			<path fill="#0091EA" d="M76.1-4.9c0-0.4-0.2-0.8-0.5-1.1c-0.3-0.3-0.7-0.4-1.1-0.4c-0.4,0-0.8,0.1-1.1,0.4
				C73.1-5.7,73-5.3,73-4.9c0,0.4,0.2,0.8,0.5,1.1s0.7,0.5,1.1,0.5c0.4,0,0.8-0.2,1.1-0.5S76.1-4.5,76.1-4.9z"/>
		</g>
	</g>
	<g>
		<polygon fill="none" points="-40,-20 -80,-20 -80,20 -40,20 		"/>
	</g>
	<polygon fill="none" points="84,-20 -84,-20 -84,20 84,20 	"/>
</symbol>
<g id="Your_Icon">
	<path fill="#0091EA" d="M223.8,391.1l10.2,7.9l0,11.2l8.2-5.4l-2.9-2.7l11.3,8.2l18.2-28.6L223.8,391.1z M264.9,384.3L240,400.2
		l-4.1,6.9l0.1-8.8L264.9,384.3z"/>
</g>
</svg>
